{
	"accessors" : 
	[
		{
			"bufferView" : 2,
			"byteOffset" : 0,
			"componentType" : 5126,
			"count" : 9888,
			"max" : 
			[
				0.2631747424602509,
				0.5542271137237549,
				0.07805658876895905,
				1
			],
			"min" : 
			[
				0.0697270855307579,
				0.08919350802898407,
				0.06190747767686844,
				1
			],
			"name" : "accessor_color_m0-PolyPaper10_-505358",
			"type" : "VEC4"
		},
		{
			"bufferView" : 2,
			"byteOffset" : 158208,
			"componentType" : 5126,
			"count" : 9968,
			"max" : 
			[
				0.2631747424602509,
				0.7372047901153564,
				0.8277258276939392,
				1
			],
			"min" : 
			[
				5.692175545846112e-05,
				0.08919350802898407,
				0.06190747767686844,
				1
			],
			"name" : "accessor_color_m1-PolyPaper10_-505666",
			"type" : "VEC4"
		},
		{
			"bufferView" : 2,
			"byteOffset" : 317696,
			"componentType" : 5126,
			"count" : 9648,
			"max" : 
			[
				1,
				1,
				1,
				1
			],
			"min" : 
			[
				5.692175545846112e-05,
				0.08919350802898407,
				0.06190747767686844,
				1
			],
			"name" : "accessor_color_m2-PolyPaper10_-508106",
			"type" : "VEC4"
		},
		{
			"bufferView" : 2,
			"byteOffset" : 472064,
			"componentType" : 5126,
			"count" : 3264,
			"max" : 
			[
				1,
				1,
				1,
				1
			],
			"min" : 
			[
				1,
				1,
				1,
				1
			],
			"name" : "accessor_color_m3-PolyPaper21_-509992",
			"type" : "VEC4"
		},
		{
			"bufferView" : 0,
			"byteOffset" : 0,
			"componentType" : 5123,
			"count" : 14760,
			"max" : 
			[
				9887
			],
			"min" : 
			[
				0
			],
			"name" : "accessor_indices_0_m0-PolyPaper10_-505358",
			"type" : "SCALAR"
		},
		{
			"bufferView" : 0,
			"byteOffset" : 29520,
			"componentType" : 5123,
			"count" : 14904,
			"max" : 
			[
				9967
			],
			"min" : 
			[
				0
			],
			"name" : "accessor_indices_0_m1-PolyPaper10_-505666",
			"type" : "SCALAR"
		},
		{
			"bufferView" : 0,
			"byteOffset" : 59328,
			"componentType" : 5123,
			"count" : 13746,
			"max" : 
			[
				9647
			],
			"min" : 
			[
				0
			],
			"name" : "accessor_indices_0_m2-PolyPaper10_-508106",
			"type" : "SCALAR"
		},
		{
			"bufferView" : 0,
			"byteOffset" : 86820,
			"componentType" : 5123,
			"count" : 4608,
			"max" : 
			[
				3263
			],
			"min" : 
			[
				0
			],
			"name" : "accessor_indices_0_m3-PolyPaper21_-509992",
			"type" : "SCALAR"
		},
		{
			"bufferView" : 1,
			"byteOffset" : 118656,
			"componentType" : 5126,
			"count" : 9888,
			"max" : 
			[
				1,
				1,
				1
			],
			"min" : 
			[
				-1,
				-1,
				-1
			],
			"name" : "accessor_normal_m0-PolyPaper10_-505358",
			"type" : "VEC3"
		},
		{
			"bufferView" : 1,
			"byteOffset" : 356928,
			"componentType" : 5126,
			"count" : 9968,
			"max" : 
			[
				1,
				1,
				1
			],
			"min" : 
			[
				-1,
				-1,
				-1
			],
			"name" : "accessor_normal_m1-PolyPaper10_-505666",
			"type" : "VEC3"
		},
		{
			"bufferView" : 1,
			"byteOffset" : 592320,
			"componentType" : 5126,
			"count" : 9648,
			"max" : 
			[
				1,
				1,
				1
			],
			"min" : 
			[
				-1,
				-1,
				-1
			],
			"name" : "accessor_normal_m2-PolyPaper10_-508106",
			"type" : "VEC3"
		},
		{
			"bufferView" : 1,
			"byteOffset" : 747264,
			"componentType" : 5126,
			"count" : 3264,
			"max" : 
			[
				0.9837437,
				0.9837443,
				0.9837435
			],
			"min" : 
			[
				-0.9837436000000001,
				-0.9837443,
				-0.9837435
			],
			"name" : "accessor_normal_m3-PolyPaper21_-509992",
			"type" : "VEC3"
		},
		{
			"bufferView" : 1,
			"byteOffset" : 0,
			"componentType" : 5126,
			"count" : 9888,
			"max" : 
			[
				1.709111,
				1.72999,
				0.7542164
			],
			"min" : 
			[
				-1.205801,
				-0.8399618,
				-2.015719
			],
			"name" : "accessor_position_m0-PolyPaper10_-505358",
			"type" : "VEC3"
		},
		{
			"bufferView" : 1,
			"byteOffset" : 237312,
			"componentType" : 5126,
			"count" : 9968,
			"max" : 
			[
				1.87997,
				1.35996,
				0.9728701
			],
			"min" : 
			[
				-1.35003,
				-1.499988,
				-1.930517
			],
			"name" : "accessor_position_m1-PolyPaper10_-505666",
			"type" : "VEC3"
		},
		{
			"bufferView" : 1,
			"byteOffset" : 476544,
			"componentType" : 5126,
			"count" : 9648,
			"max" : 
			[
				2.110002,
				1.209991,
				0.8485288
			],
			"min" : 
			[
				-1.339774,
				-3.449994,
				-1.669971
			],
			"name" : "accessor_position_m2-PolyPaper10_-508106",
			"type" : "VEC3"
		},
		{
			"bufferView" : 1,
			"byteOffset" : 708096,
			"componentType" : 5126,
			"count" : 3264,
			"max" : 
			[
				1.767757,
				-2.831819,
				0.0136659
			],
			"min" : 
			[
				-1.60321,
				-3.475509,
				-1.121066
			],
			"name" : "accessor_position_m3-PolyPaper21_-509992",
			"type" : "VEC3"
		}
	],
	"asset" : 
	{
		"copyright" : "Unknown",
		"generator" : "glTF 1-to-2 Upgrader for Google Blocks",
		"version" : "2.0"
	},
	"bufferViews" : 
	[
		{
			"buffer" : 0,
			"byteLength" : 96036,
			"byteOffset" : 0,
			"name" : "ushortBufferView",
			"target" : 34963
		},
		{
			"buffer" : 0,
			"byteLength" : 786432,
			"byteOffset" : 96036,
			"byteStride" : 12,
			"name" : "vec3BufferView",
			"target" : 34962
		},
		{
			"buffer" : 0,
			"byteLength" : 524288,
			"byteOffset" : 882468,
			"byteStride" : 16,
			"name" : "vec4BufferView",
			"target" : 34962
		}
	],
	"buffers" : 
	[
		{
			"byteLength" : 1406756,
			"name" : "model",
			"uri" : "model.bin"
		}
	],
	"materials" : 
	[
		{
			"alphaMode" : "OPAQUE",
			"doubleSided" : false,
			"name" : "BlocksPaper",
			"pbrMetallicRoughness" : 
			{
				"baseColorFactor" : 
				[
					1,
					1,
					1,
					1
				],
				"metallicFactor" : 0,
				"roughnessFactor" : 0.6
			}
		},
		{
			"alphaMode" : "BLEND",
			"doubleSided" : false,
			"name" : "BlocksGlass",
			"pbrMetallicRoughness" : 
			{
				"baseColorFactor" : 
				[
					0.2,
					0.2,
					1,
					0.3
				],
				"metallicFactor" : 1,
				"roughnessFactor" : 0.4
			}
		},
		{
			"alphaMode" : "OPAQUE",
			"doubleSided" : true,
			"name" : "BlocksGem",
			"pbrMetallicRoughness" : 
			{
				"baseColorFactor" : 
				[
					1,
					0.4,
					1,
					1
				],
				"metallicFactor" : 0,
				"roughnessFactor" : 0.1
			}
		}
	],
	"meshes" : 
	[
		{
			"name" : "mesh_m0-PolyPaper10_-505358",
			"primitives" : 
			[
				{
					"attributes" : 
					{
						"COLOR_0" : 0,
						"NORMAL" : 8,
						"POSITION" : 12
					},
					"indices" : 4,
					"material" : 0,
					"mode" : 4
				}
			]
		},
		{
			"name" : "mesh_m1-PolyPaper10_-505666",
			"primitives" : 
			[
				{
					"attributes" : 
					{
						"COLOR_0" : 1,
						"NORMAL" : 9,
						"POSITION" : 13
					},
					"indices" : 5,
					"material" : 0,
					"mode" : 4
				}
			]
		},
		{
			"name" : "mesh_m2-PolyPaper10_-508106",
			"primitives" : 
			[
				{
					"attributes" : 
					{
						"COLOR_0" : 2,
						"NORMAL" : 10,
						"POSITION" : 14
					},
					"indices" : 6,
					"material" : 0,
					"mode" : 4
				}
			]
		},
		{
			"name" : "mesh_m3-PolyPaper21_-509992",
			"primitives" : 
			[
				{
					"attributes" : 
					{
						"COLOR_0" : 3,
						"NORMAL" : 11,
						"POSITION" : 15
					},
					"indices" : 7,
					"material" : 0,
					"mode" : 4
				}
			]
		}
	],
	"nodes" : 
	[
		{
			"matrix" : 
			[
				1,
				0,
				0,
				0,
				0,
				1,
				0,
				0,
				0,
				0,
				1,
				0,
				0,
				0,
				0,
				1
			],
			"mesh" : 3,
			"name" : "node_MeshObject-528741888-PolyPaper21"
		},
		{
			"matrix" : 
			[
				1,
				0,
				0,
				0,
				0,
				1,
				0,
				0,
				0,
				0,
				1,
				0,
				0,
				0,
				0,
				1
			],
			"mesh" : 0,
			"name" : "node_MeshObject1488824384-PolyPaper10"
		},
		{
			"matrix" : 
			[
				1,
				0,
				0,
				0,
				0,
				1,
				0,
				0,
				0,
				0,
				1,
				0,
				0,
				0,
				0,
				1
			],
			"mesh" : 2,
			"name" : "node_MeshObject185048576-PolyPaper10"
		},
		{
			"matrix" : 
			[
				1,
				0,
				0,
				0,
				0,
				1,
				0,
				0,
				0,
				0,
				1,
				0,
				0,
				0,
				0,
				1
			],
			"mesh" : 1,
			"name" : "node_MeshObject378039168-PolyPaper10"
		}
	],
	"scene" : 0,
	"scenes" : 
	[
		{
			"extras" : {},
			"name" : "defaultScene",
			"nodes" : 
			[
				1,
				3,
				2,
				0
			]
		}
	]
}